G04*
G04 #@! TF.GenerationSoftware,Altium Limited,Altium Designer,21.6.1 (37)*
G04*
G04 Layer_Physical_Order=4*
G04 Layer_Color=16711680*
%FSLAX25Y25*%
%MOIN*%
G70*
G04*
G04 #@! TF.SameCoordinates,72B02422-432E-41AD-A4AF-C81364CF504D*
G04*
G04*
G04 #@! TF.FilePolarity,Positive*
G04*
G01*
G75*
%ADD28C,0.01772*%
G36*
X58252Y32254D02*
X57752Y32155D01*
X57651Y32399D01*
X57202Y32848D01*
X56616Y33090D01*
X55982D01*
X55396Y32848D01*
X54948Y32399D01*
X54705Y31813D01*
Y31179D01*
X54948Y30593D01*
X55396Y30144D01*
X55982Y29901D01*
X56616D01*
X57202Y30144D01*
X57651Y30593D01*
X57752Y30838D01*
X58252Y30738D01*
Y803D01*
X803D01*
Y30935D01*
X1303Y31034D01*
X1404Y30790D01*
X1853Y30341D01*
X2439Y30098D01*
X3073D01*
X3659Y30341D01*
X4108Y30790D01*
X4350Y31376D01*
Y32010D01*
X4108Y32596D01*
X3659Y33045D01*
X3073Y33287D01*
X2439D01*
X1853Y33045D01*
X1404Y32596D01*
X1303Y32351D01*
X803Y32451D01*
Y38567D01*
X58252D01*
Y32254D01*
D02*
G37*
%LPC*%
G36*
X7010Y33287D02*
X6376D01*
X5790Y33045D01*
X5341Y32596D01*
X5098Y32010D01*
Y31376D01*
X5341Y30790D01*
X5790Y30341D01*
X6376Y30098D01*
X7010D01*
X7596Y30341D01*
X8045Y30790D01*
X8287Y31376D01*
Y32010D01*
X8045Y32596D01*
X7596Y33045D01*
X7010Y33287D01*
D02*
G37*
G36*
X52679Y33090D02*
X52045D01*
X51459Y32848D01*
X51011Y32399D01*
X50768Y31813D01*
Y31179D01*
X51011Y30593D01*
X51459Y30144D01*
X52045Y29901D01*
X52679D01*
X53265Y30144D01*
X53714Y30593D01*
X53957Y31179D01*
Y31813D01*
X53714Y32399D01*
X53265Y32848D01*
X52679Y33090D01*
D02*
G37*
G36*
X37325Y24035D02*
X36691D01*
X36105Y23793D01*
X35656Y23344D01*
X35413Y22758D01*
Y22124D01*
X35656Y21538D01*
X36105Y21089D01*
X36691Y20846D01*
X37325D01*
X37911Y21089D01*
X38360Y21538D01*
X38602Y22124D01*
Y22758D01*
X38360Y23344D01*
X37911Y23793D01*
X37325Y24035D01*
D02*
G37*
G36*
X29845Y21280D02*
X29210D01*
X28624Y21037D01*
X28176Y20588D01*
X27933Y20002D01*
Y19368D01*
X28176Y18782D01*
X28624Y18333D01*
X29210Y18091D01*
X29845D01*
X30431Y18333D01*
X30879Y18782D01*
X31122Y19368D01*
Y20002D01*
X30879Y20588D01*
X30431Y21037D01*
X29845Y21280D01*
D02*
G37*
G36*
X38014Y14370D02*
X37380D01*
X36794Y14127D01*
X36345Y13679D01*
X36102Y13093D01*
Y12458D01*
X36345Y11872D01*
X36794Y11424D01*
X37380Y11181D01*
X38014D01*
X38600Y11424D01*
X39049Y11872D01*
X39291Y12458D01*
Y13093D01*
X39049Y13679D01*
X38600Y14127D01*
X38014Y14370D01*
D02*
G37*
G36*
X30337Y13799D02*
X29702D01*
X29116Y13556D01*
X28668Y13108D01*
X28425Y12522D01*
Y11888D01*
X28668Y11302D01*
X29116Y10853D01*
X29702Y10610D01*
X30337D01*
X30923Y10853D01*
X31371Y11302D01*
X31614Y11888D01*
Y12522D01*
X31371Y13108D01*
X30923Y13556D01*
X30337Y13799D01*
D02*
G37*
G36*
X42738Y12815D02*
X42104D01*
X41518Y12572D01*
X41069Y12124D01*
X40827Y11538D01*
Y10903D01*
X41069Y10317D01*
X41518Y9869D01*
X42104Y9626D01*
X42738D01*
X43325Y9869D01*
X43773Y10317D01*
X44016Y10903D01*
Y11538D01*
X43773Y12124D01*
X43325Y12572D01*
X42738Y12815D01*
D02*
G37*
%LPD*%
D28*
X29528Y19685D02*
D03*
X2756Y31693D02*
D03*
Y36417D02*
D03*
X6693Y31693D02*
D03*
Y36417D02*
D03*
X52362Y31496D02*
D03*
Y36417D02*
D03*
X56299Y31496D02*
D03*
Y36417D02*
D03*
X37697Y12776D02*
D03*
X37008Y22441D02*
D03*
X42913Y14567D02*
D03*
X27461Y12205D02*
D03*
X30020D02*
D03*
X37697Y15354D02*
D03*
X42421Y11220D02*
D03*
M02*
