G04*
G04 #@! TF.GenerationSoftware,Altium Limited,Altium Designer,21.6.1 (37)*
G04*
G04 Layer_Physical_Order=1*
G04 Layer_Color=255*
%FSLAX25Y25*%
%MOIN*%
G70*
G04*
G04 #@! TF.SameCoordinates,72B02422-432E-41AD-A4AF-C81364CF504D*
G04*
G04*
G04 #@! TF.FilePolarity,Positive*
G04*
G01*
G75*
G04:AMPARAMS|DCode=14|XSize=11.81mil|YSize=23.62mil|CornerRadius=2.95mil|HoleSize=0mil|Usage=FLASHONLY|Rotation=90.000|XOffset=0mil|YOffset=0mil|HoleType=Round|Shape=RoundedRectangle|*
%AMROUNDEDRECTD14*
21,1,0.01181,0.01772,0,0,90.0*
21,1,0.00591,0.02362,0,0,90.0*
1,1,0.00591,0.00886,0.00295*
1,1,0.00591,0.00886,-0.00295*
1,1,0.00591,-0.00886,-0.00295*
1,1,0.00591,-0.00886,0.00295*
%
%ADD14ROUNDEDRECTD14*%
G04:AMPARAMS|DCode=15|XSize=11.81mil|YSize=23.62mil|CornerRadius=2.95mil|HoleSize=0mil|Usage=FLASHONLY|Rotation=0.000|XOffset=0mil|YOffset=0mil|HoleType=Round|Shape=RoundedRectangle|*
%AMROUNDEDRECTD15*
21,1,0.01181,0.01772,0,0,0.0*
21,1,0.00591,0.02362,0,0,0.0*
1,1,0.00591,0.00295,-0.00886*
1,1,0.00591,-0.00295,-0.00886*
1,1,0.00591,-0.00295,0.00886*
1,1,0.00591,0.00295,0.00886*
%
%ADD15ROUNDEDRECTD15*%
%ADD16R,0.07874X0.03937*%
G04:AMPARAMS|DCode=17|XSize=39.37mil|YSize=35.43mil|CornerRadius=4.43mil|HoleSize=0mil|Usage=FLASHONLY|Rotation=0.000|XOffset=0mil|YOffset=0mil|HoleType=Round|Shape=RoundedRectangle|*
%AMROUNDEDRECTD17*
21,1,0.03937,0.02657,0,0,0.0*
21,1,0.03051,0.03543,0,0,0.0*
1,1,0.00886,0.01526,-0.01329*
1,1,0.00886,-0.01526,-0.01329*
1,1,0.00886,-0.01526,0.01329*
1,1,0.00886,0.01526,0.01329*
%
%ADD17ROUNDEDRECTD17*%
G04:AMPARAMS|DCode=18|XSize=19.68mil|YSize=23.62mil|CornerRadius=1.97mil|HoleSize=0mil|Usage=FLASHONLY|Rotation=0.000|XOffset=0mil|YOffset=0mil|HoleType=Round|Shape=RoundedRectangle|*
%AMROUNDEDRECTD18*
21,1,0.01968,0.01968,0,0,0.0*
21,1,0.01575,0.02362,0,0,0.0*
1,1,0.00394,0.00787,-0.00984*
1,1,0.00394,-0.00787,-0.00984*
1,1,0.00394,-0.00787,0.00984*
1,1,0.00394,0.00787,0.00984*
%
%ADD18ROUNDEDRECTD18*%
G04:AMPARAMS|DCode=19|XSize=19.68mil|YSize=23.62mil|CornerRadius=1.97mil|HoleSize=0mil|Usage=FLASHONLY|Rotation=90.000|XOffset=0mil|YOffset=0mil|HoleType=Round|Shape=RoundedRectangle|*
%AMROUNDEDRECTD19*
21,1,0.01968,0.01968,0,0,90.0*
21,1,0.01575,0.02362,0,0,90.0*
1,1,0.00394,0.00984,0.00787*
1,1,0.00394,0.00984,-0.00787*
1,1,0.00394,-0.00984,-0.00787*
1,1,0.00394,-0.00984,0.00787*
%
%ADD19ROUNDEDRECTD19*%
%ADD26C,0.01181*%
%ADD27C,0.01968*%
%ADD28C,0.01772*%
D14*
X33957Y22638D02*
D03*
Y18701D02*
D03*
Y20669D02*
D03*
Y16732D02*
D03*
X25098Y18701D02*
D03*
Y22638D02*
D03*
Y20669D02*
D03*
Y16732D02*
D03*
D15*
X31496Y23130D02*
D03*
X29528D02*
D03*
X27559D02*
D03*
X31496Y16240D02*
D03*
X27559D02*
D03*
X29528D02*
D03*
D16*
X4724Y7776D02*
D03*
X54331Y36417D02*
D03*
Y31496D02*
D03*
X4724Y3051D02*
D03*
Y12500D02*
D03*
Y17224D02*
D03*
Y22047D02*
D03*
Y26870D02*
D03*
Y31693D02*
D03*
Y36417D02*
D03*
D17*
X42421Y9547D02*
D03*
Y16240D02*
D03*
D18*
X37697Y12106D02*
D03*
Y16043D02*
D03*
D19*
X30709Y12205D02*
D03*
X26772D02*
D03*
D26*
X29624Y26971D02*
G03*
X29618Y26975I-1770J-2955D01*
G01*
X24508Y28307D02*
G03*
X24475Y28307I0J-5669D01*
G01*
X25149Y28307D02*
G03*
X25098Y28307I-51J-5669D01*
G01*
X25358Y28301D02*
G03*
X25149Y28307I-260J-5663D01*
G01*
X28733Y27505D02*
G03*
X26223Y28262I-2749J-4572D01*
G01*
X31163Y24974D02*
G03*
X29624Y26971I-3309J-958D01*
G01*
X31333Y24385D02*
G03*
X31314Y24456I-1511J-370D01*
G01*
X27754Y25888D02*
G03*
X26138Y26375I-1770J-2955D01*
G01*
X25268Y26414D02*
G03*
X25098Y26417I-169J-3776D01*
G01*
X29365Y24385D02*
G03*
X28653Y25350I-1511J-370D01*
G01*
X25183Y24526D02*
G03*
X25098Y24528I-85J-1888D01*
G01*
X26887Y24200D02*
G03*
X26054Y24487I-902J-1266D01*
G01*
X23718Y26342D02*
G03*
X23581Y26320I495J-3409D01*
G01*
X24508Y26417D02*
G03*
X23965Y26378I0J-3779D01*
G01*
X24508Y24528D02*
G03*
X24236Y24508I0J-1890D01*
G01*
X9004Y18867D02*
G03*
X9108Y18901I-343J1212D01*
G01*
X23248Y24272D02*
G03*
X22987Y24184I965J-3307D01*
G01*
X23989Y24472D02*
G03*
X23777Y24426I224J-1539D01*
G01*
X23843Y22475D02*
G03*
X23436Y22312I370J-1511D01*
G01*
X8874Y14014D02*
G03*
X9290Y14164I-213J1242D01*
G01*
X8872Y9289D02*
G03*
X9206Y9396I-211J1242D01*
G01*
X40896Y19272D02*
G03*
X40741Y19265I0J-1703D01*
G01*
X45650Y17569D02*
G03*
X43947Y19272I-1703J0D01*
G01*
X44046Y6519D02*
G03*
X45650Y8219I-99J1700D01*
G01*
X4724Y26870D02*
X8071Y28248D01*
X4670Y27020D02*
X8071Y28248D01*
X4528Y26969D02*
X4670Y27020D01*
X8071Y28248D02*
X8071Y28248D01*
X25667Y28287D02*
X26223Y28262D01*
X25358Y28301D02*
X25667Y28287D01*
X8071Y28248D02*
X24475Y28307D01*
X8071Y28248D02*
X8071D01*
X24508Y28307D02*
X25098D01*
X28733Y27505D02*
X29618Y26975D01*
X31163Y24974D02*
X31314Y24456D01*
X29365Y24385D02*
X29528Y23720D01*
X25183Y24526D02*
X26054Y24487D01*
X24508Y26417D02*
X25098D01*
X24508Y24528D02*
X25098D01*
X26887Y24200D02*
X27559Y23720D01*
X27754Y25888D02*
X28653Y25350D01*
X25268Y26414D02*
X26138Y26375D01*
X4724Y22047D02*
X8071Y23425D01*
X23718Y26342D02*
X23965Y26378D01*
X8071Y23425D02*
X23581Y26320D01*
X29528Y23130D02*
Y23720D01*
X9108Y18901D02*
X22987Y24184D01*
X8071Y18602D02*
X9004Y18867D01*
X24508Y22638D02*
X25098D01*
X23989Y24472D02*
X24236Y24508D01*
X9290Y14164D02*
X23436Y22312D01*
X27559Y23130D02*
Y23720D01*
X23843Y22475D02*
X24508Y22638D01*
X23248Y24272D02*
X23777Y24426D01*
X4724Y17224D02*
X8071Y18602D01*
Y13878D02*
X8874Y14014D01*
X4724Y12500D02*
X8071Y13878D01*
Y9154D02*
X8872Y9289D01*
X9206Y9396D02*
X24508Y16732D01*
X4724Y7776D02*
X8071Y9154D01*
X24508Y16732D02*
X25098D01*
X40896Y19272D02*
X43947D01*
X45650Y8219D02*
Y17569D01*
X8071Y4429D02*
X44046Y6519D01*
X33957Y18701D02*
X34547D01*
X40741Y19265D01*
X4724Y3051D02*
X8071Y4429D01*
X34547Y16732D02*
X37637Y15983D01*
X33957Y16732D02*
X34547D01*
X37539Y15393D02*
X37697Y15354D01*
X29528Y16240D02*
X31496D01*
X29528Y15650D02*
X30020Y12205D01*
X29528Y15650D02*
Y16240D01*
X27456Y12263D02*
Y12263D01*
Y12263D02*
X27461Y12205D01*
X27559Y15650D01*
Y16240D01*
X33957Y22638D02*
X34547D01*
X37008Y22441D01*
X31333Y24385D02*
X31496Y23720D01*
Y23130D02*
Y23720D01*
D27*
X42165Y16063D02*
X42913Y16437D01*
X37795Y15945D02*
X41929D01*
X42165Y16063D01*
D28*
X29528Y19685D02*
D03*
X2756Y31693D02*
D03*
Y36417D02*
D03*
X6693Y31693D02*
D03*
Y36417D02*
D03*
X52362Y31496D02*
D03*
Y36417D02*
D03*
X56299Y31496D02*
D03*
Y36417D02*
D03*
X37697Y12776D02*
D03*
X37008Y22441D02*
D03*
X42913Y14567D02*
D03*
X27461Y12205D02*
D03*
X30020D02*
D03*
X37697Y15354D02*
D03*
X42421Y11220D02*
D03*
M02*
