G04*
G04 #@! TF.GenerationSoftware,Altium Limited,Altium Designer,21.6.1 (37)*
G04*
G04 Layer_Physical_Order=2*
G04 Layer_Color=36540*
%FSLAX25Y25*%
%MOIN*%
G70*
G04*
G04 #@! TF.SameCoordinates,72B02422-432E-41AD-A4AF-C81364CF504D*
G04*
G04*
G04 #@! TF.FilePolarity,Positive*
G04*
G01*
G75*
%ADD28C,0.01772*%
G36*
X58252Y803D02*
X803D01*
Y38567D01*
X58252D01*
Y803D01*
D02*
G37*
%LPC*%
G36*
X56519Y37520D02*
X56080D01*
X55675Y37352D01*
X55365Y37042D01*
X55197Y36637D01*
Y36198D01*
X55365Y35793D01*
X55675Y35483D01*
X56080Y35315D01*
X56519D01*
X56924Y35483D01*
X57234Y35793D01*
X57402Y36198D01*
Y36637D01*
X57234Y37042D01*
X56924Y37352D01*
X56519Y37520D01*
D02*
G37*
G36*
X52582D02*
X52143D01*
X51738Y37352D01*
X51428Y37042D01*
X51260Y36637D01*
Y36198D01*
X51428Y35793D01*
X51738Y35483D01*
X52143Y35315D01*
X52582D01*
X52987Y35483D01*
X53297Y35793D01*
X53465Y36198D01*
Y36637D01*
X53297Y37042D01*
X52987Y37352D01*
X52582Y37520D01*
D02*
G37*
G36*
X6912D02*
X6474D01*
X6069Y37352D01*
X5758Y37042D01*
X5591Y36637D01*
Y36198D01*
X5758Y35793D01*
X6069Y35483D01*
X6474Y35315D01*
X6912D01*
X7317Y35483D01*
X7627Y35793D01*
X7795Y36198D01*
Y36637D01*
X7627Y37042D01*
X7317Y37352D01*
X6912Y37520D01*
D02*
G37*
G36*
X2975D02*
X2537D01*
X2131Y37352D01*
X1821Y37042D01*
X1654Y36637D01*
Y36198D01*
X1821Y35793D01*
X2131Y35483D01*
X2537Y35315D01*
X2975D01*
X3380Y35483D01*
X3691Y35793D01*
X3858Y36198D01*
Y36637D01*
X3691Y37042D01*
X3380Y37352D01*
X2975Y37520D01*
D02*
G37*
G36*
X37916Y16457D02*
X37478D01*
X37072Y16289D01*
X36762Y15979D01*
X36595Y15574D01*
Y15135D01*
X36762Y14730D01*
X37072Y14420D01*
X37478Y14252D01*
X37916D01*
X38321Y14420D01*
X38631Y14730D01*
X38799Y15135D01*
Y15574D01*
X38631Y15979D01*
X38321Y16289D01*
X37916Y16457D01*
D02*
G37*
G36*
X43133Y15669D02*
X42694D01*
X42289Y15502D01*
X41979Y15191D01*
X41811Y14786D01*
Y14348D01*
X41979Y13942D01*
X42289Y13632D01*
X42694Y13465D01*
X43133D01*
X43538Y13632D01*
X43848Y13942D01*
X44016Y14348D01*
Y14786D01*
X43848Y15191D01*
X43538Y15502D01*
X43133Y15669D01*
D02*
G37*
G36*
X27680Y13307D02*
X27241D01*
X26836Y13139D01*
X26526Y12829D01*
X26358Y12424D01*
Y11986D01*
X26526Y11580D01*
X26836Y11270D01*
X27241Y11102D01*
X27680D01*
X28085Y11270D01*
X28395Y11580D01*
X28563Y11986D01*
Y12424D01*
X28395Y12829D01*
X28085Y13139D01*
X27680Y13307D01*
D02*
G37*
%LPD*%
D28*
X29528Y19685D02*
D03*
X2756Y31693D02*
D03*
X6693D02*
D03*
X52362Y31496D02*
D03*
X56299D02*
D03*
X37697Y12776D02*
D03*
X37008Y22441D02*
D03*
X30020Y12205D02*
D03*
X42421Y11220D02*
D03*
M02*
