G04*
G04 #@! TF.GenerationSoftware,Altium Limited,Altium Designer,21.6.1 (37)*
G04*
G04 Layer_Color=65535*
%FSLAX25Y25*%
%MOIN*%
G70*
G04*
G04 #@! TF.SameCoordinates,72B02422-432E-41AD-A4AF-C81364CF504D*
G04*
G04*
G04 #@! TF.FilePolarity,Positive*
G04*
G01*
G75*
%ADD10C,0.00984*%
%ADD11C,0.00630*%
%ADD12C,0.00787*%
%ADD13C,0.00500*%
D10*
X22343Y26378D02*
G03*
X22343Y26378I-492J0D01*
G01*
D11*
X52088Y13386D02*
G03*
X56180Y13386I2046J1181D01*
G01*
X56354Y7698D02*
G03*
X56354Y6082I-2220J-808D01*
G01*
X52362Y18624D02*
G03*
X52362Y22715I-1181J2046D01*
G01*
X55315Y13189D02*
X56004Y12500D01*
X55315Y13189D02*
X56180Y13386D01*
X55610Y5709D02*
X56354Y6082D01*
X55610Y5709D02*
X56299Y5217D01*
X56354Y6082D01*
X56004Y12500D02*
X56180Y13386D01*
X52362Y18624D02*
X52559Y19488D01*
X53248Y18799D01*
X52362Y18624D02*
X53248Y18799D01*
X12375Y32742D02*
X11850Y33267D01*
X10800D01*
X10276Y32742D01*
Y30643D01*
X10800Y30119D01*
X11850D01*
X12375Y30643D01*
Y31693D01*
X11325D01*
X13424Y30119D02*
Y33267D01*
X15523Y30119D01*
Y33267D01*
X16573D02*
Y30119D01*
X18147D01*
X18672Y30643D01*
Y32742D01*
X18147Y33267D01*
X16573D01*
X10276Y36417D02*
X12375D01*
X11325Y37467D02*
Y35368D01*
X13424Y37467D02*
X13949Y37992D01*
X14999D01*
X15523Y37467D01*
Y36942D01*
X14999Y36417D01*
X14474D01*
X14999D01*
X15523Y35893D01*
Y35368D01*
X14999Y34843D01*
X13949D01*
X13424Y35368D01*
X16573Y34843D02*
Y35368D01*
X17098D01*
Y34843D01*
X16573D01*
X19197Y37467D02*
X19721Y37992D01*
X20771D01*
X21296Y37467D01*
Y36942D01*
X20771Y36417D01*
X20246D01*
X20771D01*
X21296Y35893D01*
Y35368D01*
X20771Y34843D01*
X19721D01*
X19197Y35368D01*
X10276Y4625D02*
X11325D01*
X10800D01*
Y1477D01*
X10276D01*
X11325D01*
X12899D02*
Y4625D01*
X14999Y1477D01*
Y4625D01*
X16048D02*
X18147D01*
X17098D01*
Y1477D01*
X21296D02*
X19197D01*
X21296Y3576D01*
Y4101D01*
X20771Y4625D01*
X19721D01*
X19197Y4101D01*
X10276Y9350D02*
X11325D01*
X10800D01*
Y6201D01*
X10276D01*
X11325D01*
X12899D02*
Y9350D01*
X14999Y6201D01*
Y9350D01*
X16048D02*
X18147D01*
X17098D01*
Y6201D01*
X19197D02*
X20246D01*
X19721D01*
Y9350D01*
X19197Y8825D01*
X42679Y32349D02*
X42154Y32873D01*
X41105D01*
X40580Y32349D01*
Y30250D01*
X41105Y29725D01*
X42154D01*
X42679Y30250D01*
Y31299D01*
X41630D01*
X43729Y29725D02*
Y32873D01*
X45828Y29725D01*
Y32873D01*
X46877D02*
Y29725D01*
X48452D01*
X48976Y30250D01*
Y32349D01*
X48452Y32873D01*
X46877D01*
X12375Y27920D02*
X11850Y28444D01*
X10800D01*
X10276Y27920D01*
Y25820D01*
X10800Y25296D01*
X11850D01*
X12375Y25820D01*
X15523Y27920D02*
X14999Y28444D01*
X13949D01*
X13424Y27920D01*
Y27395D01*
X13949Y26870D01*
X14999D01*
X15523Y26345D01*
Y25820D01*
X14999Y25296D01*
X13949D01*
X13424Y25820D01*
X37956Y36417D02*
X40055D01*
X39006Y37467D02*
Y35368D01*
X41105Y37467D02*
X41630Y37992D01*
X42679D01*
X43204Y37467D01*
Y36942D01*
X42679Y36417D01*
X42154D01*
X42679D01*
X43204Y35893D01*
Y35368D01*
X42679Y34843D01*
X41630D01*
X41105Y35368D01*
X44254Y34843D02*
Y35368D01*
X44778D01*
Y34843D01*
X44254D01*
X46877Y37467D02*
X47402Y37992D01*
X48452D01*
X48976Y37467D01*
Y36942D01*
X48452Y36417D01*
X47927D01*
X48452D01*
X48976Y35893D01*
Y35368D01*
X48452Y34843D01*
X47402D01*
X46877Y35368D01*
X12375Y23097D02*
X11850Y23621D01*
X10800D01*
X10276Y23097D01*
Y22572D01*
X10800Y22047D01*
X11850D01*
X12375Y21522D01*
Y20998D01*
X11850Y20473D01*
X10800D01*
X10276Y20998D01*
X15523Y23097D02*
X14999Y23621D01*
X13949D01*
X13424Y23097D01*
Y20998D01*
X13949Y20473D01*
X14999D01*
X15523Y20998D01*
X16573Y23621D02*
Y20473D01*
X18672D01*
X19721Y23621D02*
Y20473D01*
Y21522D01*
X21820Y23621D01*
X20246Y22047D01*
X21820Y20473D01*
X10276Y15650D02*
Y18799D01*
X11325Y17749D01*
X12375Y18799D01*
Y15650D01*
X14999Y18799D02*
X13949D01*
X13424Y18274D01*
Y16175D01*
X13949Y15650D01*
X14999D01*
X15523Y16175D01*
Y18274D01*
X14999Y18799D01*
X18672Y18274D02*
X18147Y18799D01*
X17098D01*
X16573Y18274D01*
Y17749D01*
X17098Y17224D01*
X18147D01*
X18672Y16700D01*
Y16175D01*
X18147Y15650D01*
X17098D01*
X16573Y16175D01*
X19721Y18799D02*
X20771D01*
X20246D01*
Y15650D01*
X19721D01*
X20771D01*
X10276Y10926D02*
Y14074D01*
X11325Y13025D01*
X12375Y14074D01*
Y10926D01*
X13424Y14074D02*
X14474D01*
X13949D01*
Y10926D01*
X13424D01*
X14474D01*
X18147Y13550D02*
X17622Y14074D01*
X16573D01*
X16048Y13550D01*
Y13025D01*
X16573Y12500D01*
X17622D01*
X18147Y11975D01*
Y11451D01*
X17622Y10926D01*
X16573D01*
X16048Y11451D01*
X20771Y14074D02*
X19721D01*
X19197Y13550D01*
Y11451D01*
X19721Y10926D01*
X20771D01*
X21296Y11451D01*
Y13550D01*
X20771Y14074D01*
D12*
X54134Y16732D02*
X55315Y14764D01*
X54134Y10827D02*
Y16732D01*
X52953Y14764D02*
X54134Y16732D01*
X51181Y20669D02*
X57087D01*
X55118Y21850D02*
X57087Y20669D01*
X55118Y19488D02*
X57087Y20669D01*
X45932Y8858D02*
X48556D01*
Y8202D01*
X45932Y5578D01*
Y4922D01*
X48556D01*
X45932Y15747D02*
Y15091D01*
X47244Y13780D01*
X48556Y15091D01*
Y15747D01*
X47244Y13780D02*
Y11812D01*
X45932Y22637D02*
X48556Y18701D01*
Y22637D02*
X45932Y18701D01*
D13*
X40546Y13594D02*
X44296D01*
X40546Y12194D02*
X44296D01*
X35728Y9941D02*
X39665D01*
X35728D02*
Y13091D01*
Y15059D02*
Y18209D01*
X39665D01*
Y15059D02*
Y18209D01*
Y9941D02*
Y13091D01*
X32874Y10236D02*
Y14173D01*
X29724Y10236D02*
X32874D01*
X24606D02*
X27756D01*
X24606D02*
Y14173D01*
X27756D01*
X29724D02*
X32874D01*
M02*
