G04*
G04 #@! TF.GenerationSoftware,Altium Limited,Altium Designer,21.6.1 (37)*
G04*
G04 Layer_Color=8388736*
%FSLAX25Y25*%
%MOIN*%
G70*
G04*
G04 #@! TF.SameCoordinates,72B02422-432E-41AD-A4AF-C81364CF504D*
G04*
G04*
G04 #@! TF.FilePolarity,Negative*
G04*
G01*
G75*
G04:AMPARAMS|DCode=20|XSize=15.75mil|YSize=27.56mil|CornerRadius=4.92mil|HoleSize=0mil|Usage=FLASHONLY|Rotation=90.000|XOffset=0mil|YOffset=0mil|HoleType=Round|Shape=RoundedRectangle|*
%AMROUNDEDRECTD20*
21,1,0.01575,0.01772,0,0,90.0*
21,1,0.00591,0.02756,0,0,90.0*
1,1,0.00984,0.00886,0.00295*
1,1,0.00984,0.00886,-0.00295*
1,1,0.00984,-0.00886,-0.00295*
1,1,0.00984,-0.00886,0.00295*
%
%ADD20ROUNDEDRECTD20*%
G04:AMPARAMS|DCode=21|XSize=15.75mil|YSize=27.56mil|CornerRadius=4.92mil|HoleSize=0mil|Usage=FLASHONLY|Rotation=0.000|XOffset=0mil|YOffset=0mil|HoleType=Round|Shape=RoundedRectangle|*
%AMROUNDEDRECTD21*
21,1,0.01575,0.01772,0,0,0.0*
21,1,0.00591,0.02756,0,0,0.0*
1,1,0.00984,0.00295,-0.00886*
1,1,0.00984,-0.00295,-0.00886*
1,1,0.00984,-0.00295,0.00886*
1,1,0.00984,0.00295,0.00886*
%
%ADD21ROUNDEDRECTD21*%
%ADD22R,0.08268X0.04331*%
G04:AMPARAMS|DCode=23|XSize=43.31mil|YSize=39.37mil|CornerRadius=6.4mil|HoleSize=0mil|Usage=FLASHONLY|Rotation=0.000|XOffset=0mil|YOffset=0mil|HoleType=Round|Shape=RoundedRectangle|*
%AMROUNDEDRECTD23*
21,1,0.04331,0.02657,0,0,0.0*
21,1,0.03051,0.03937,0,0,0.0*
1,1,0.01280,0.01526,-0.01329*
1,1,0.01280,-0.01526,-0.01329*
1,1,0.01280,-0.01526,0.01329*
1,1,0.01280,0.01526,0.01329*
%
%ADD23ROUNDEDRECTD23*%
G04:AMPARAMS|DCode=24|XSize=23.62mil|YSize=27.56mil|CornerRadius=3.94mil|HoleSize=0mil|Usage=FLASHONLY|Rotation=0.000|XOffset=0mil|YOffset=0mil|HoleType=Round|Shape=RoundedRectangle|*
%AMROUNDEDRECTD24*
21,1,0.02362,0.01968,0,0,0.0*
21,1,0.01575,0.02756,0,0,0.0*
1,1,0.00787,0.00787,-0.00984*
1,1,0.00787,-0.00787,-0.00984*
1,1,0.00787,-0.00787,0.00984*
1,1,0.00787,0.00787,0.00984*
%
%ADD24ROUNDEDRECTD24*%
G04:AMPARAMS|DCode=25|XSize=23.62mil|YSize=27.56mil|CornerRadius=3.94mil|HoleSize=0mil|Usage=FLASHONLY|Rotation=90.000|XOffset=0mil|YOffset=0mil|HoleType=Round|Shape=RoundedRectangle|*
%AMROUNDEDRECTD25*
21,1,0.02362,0.01968,0,0,90.0*
21,1,0.01575,0.02756,0,0,90.0*
1,1,0.00787,0.00984,0.00787*
1,1,0.00787,0.00984,-0.00787*
1,1,0.00787,-0.00984,-0.00787*
1,1,0.00787,-0.00984,0.00787*
%
%ADD25ROUNDEDRECTD25*%
D20*
X33957Y22638D02*
D03*
Y18701D02*
D03*
Y20669D02*
D03*
Y16732D02*
D03*
X25098Y18701D02*
D03*
Y22638D02*
D03*
Y20669D02*
D03*
Y16732D02*
D03*
D21*
X31496Y23130D02*
D03*
X29528D02*
D03*
X27559D02*
D03*
X31496Y16240D02*
D03*
X27559D02*
D03*
X29528D02*
D03*
D22*
X4724Y7776D02*
D03*
X54331Y36417D02*
D03*
Y31496D02*
D03*
X4724Y3051D02*
D03*
Y12500D02*
D03*
Y17224D02*
D03*
Y22047D02*
D03*
Y26870D02*
D03*
Y31693D02*
D03*
Y36417D02*
D03*
D23*
X42421Y9547D02*
D03*
Y16240D02*
D03*
D24*
X37697Y12106D02*
D03*
Y16043D02*
D03*
D25*
X30709Y12205D02*
D03*
X26772D02*
D03*
M02*
